# xmcd
#
# Track frame offsets:
# 150
# 17446
# 34745
# 51963
# 66667
# 81609
# 95628
# 110762
# 125916
# 146377
# 160092
# 175770
# 190437
# 206706
# 224486
#
# Disc length: 3193 seconds
#
# Revision: 1
# Processed by: cddbd v1.5.1PL2 Copyright (c) Steve Scherf et al.
# Submitted via: CedeCatalogueitor 2.6.0.6 http://personales.ya.com/cdcatalogueitor
#
DISCID=eb0c770f
DTITLE=Varios - Sevillanas De Feria
DYEAR=2005
DGENRE=
TTITLE0=1. A bailar, a bailar - Los Mairena
TTITLE1=2. Voy a sacarla a bailar - Los Chamarones
TTITLE2=3. Cántame por sevillanas - Los Mairena
TTITLE3=4. Sevillanas para conquistar - Rebujito
TTITLE4=5. Triana te canta - Coro Camino del Rocío
TTITLE5=6. Me lo dijo mi muma - Coro Camino del Rocío
TTITLE6=7. Canela pura - Los Mairena
TTITLE7=8. Vente a bailar una sevillana fue - Rebujito
TTITLE8=9. Mira prima - Los Chamarones
TTITLE9=10. El fandango y la jarana - Los Mairena
TTITLE10=11. Venga alegría - Los Mairena
TTITLE11=12. Que se quite la corbata - Paco y Curro
TTITLE12=13. El tambotil - Conquero
TTITLE13=14. Estampa de feria - El Chozas
TTITLE14=15. Sevilla tiene algo le hace palmas Sevilla - Coro Rociero San Pablo
EXTD=
EXTT0=
EXTT1=
EXTT2=
EXTT3=
EXTT4=
EXTT5=
EXTT6=
EXTT7=
EXTT8=
EXTT9=
EXTT10=
EXTT11=
EXTT12=
EXTT13=
EXTT14=
PLAYORDER=
